Genre:Adventure | Family | Fantasy
Language:English
IMDb:http://www.imdb.com/title/tt0926084/
Source:1080p.BluRay.x264-TWiZTED
Subtitles:Romana


Format : MPEG-4
Format profile : Base Media
Codec ID : isom
File size : 3.51 GiB
Duration : 2h 26mn
Overall bit rate : 3 437 Kbps


Video
Format profile : High@L4.1
Format settings, CABAC : Yes
Format settings, ReFrames : 3 frames
Codec ID : avc1
Codec ID/Info : Advanced Video Coding
Duration : 2h 26mn
Bit rate mode : Variable
Bit rate : 3 000 Kbps
Maximum bit rate : 16.0 Mbps
Width : 1 280 pixels
Height : 536 pixels
Display aspect ratio : 2.35:1
Frame rate mode : Constant
Frame rate : 23.976 fps
Color space : YUV
Chroma subsampling : 4:2:0
Bit depth : 8 bits
Scan type : Progressive
Bits/(Pixel*Frame) : 0.182
Stream size : 3.05 GiB (87%)
Writing library : x264 


Audio
ID : 2
Format : AAC
Format/Info : Advanced Audio Codec
Format version : Version 4
Format profile : LC
Format settings, SBR : No
Codec ID : 40
Duration : 2h 26mn
Bit rate mode : Variable
Bit rate : 446 Kbps
Maximum bit rate : 545 Kbps
Channel(s) : 6 channels
Channel positions : Front: L C R, Side: L R, LFE
Sampling rate : 48.0 KHz
Stream size : 466 MiB (13%)


Plot:
As Harry races against time and evil to destroy the Horcruxes, he uncovers the existence of three most powerful objects in the wizarding world: the Deathly Hallows.
 
http://www.pix2links.com/images/30472812065405567864.png 
http://www.pix2links.com/images/13163875232897336062.png 
http://www.pix2links.com/images/43177302819913593194.png 
http://www.pix2links.com/images/07550496223125846054.png 
http://www.pix2links.com/images/30630456594392927846.png 
http://www.pix2links.com/images/34363820421783413977.png

Greets:

INK,CRYS,IMAGINE,LKRG,FXG,3Li,FLAWL3SS,TA,iLLUSiON,ViSiON,DTRG SAFCuk009,LU,TheFalcon007,MYSTiC,PrisM,Noir,WBZ,LAP,Rx,Kingdom,SAFCuk009+Fabreezy,HDLiTE,TWiZTED,ExtraTorrentRG.ELEKTRI4KA,MAGNAT,CM8
And to all the other p2p grps past and present 